<mxfile host="app.diagrams.net" modified="2024-02-13T23:56:04.306Z" agent="Mozilla/5.0 (Windows NT 10.0; Win64; x64) AppleWebKit/537.36 (KHTML, like Gecko) Chrome/121.0.0.0 Safari/537.36 Edg/121.0.0.0" version="23.1.4" etag="nx8uf4J-P4CAmg_gTHkX" type="github">
  <diagram name="Page-1" id="_1PkUxDd86Q9wdq3ggh2">
    <mxGraphModel>
      <root>
        <mxCell id="0" />
        <mxCell id="1" parent="0" />
      </root>
    </mxGraphModel>
  </diagram>
</mxfile>
